<?xml version="1.0" standalone="no"?>
<!DOCTYPE svg PUBLIC "-//W3C//DTD SVG 20010904//EN"
 "http://www.w3.org/TR/2001/REC-SVG-20010904/DTD/svg10.dtd">
<svg version="1.0" xmlns="http://www.w3.org/2000/svg"
 width="128.000000pt" height="128.000000pt" viewBox="0 0 128.000000 128.000000"
 preserveAspectRatio="xMidYMid meet">
<metadata>
Created by potrace 1.14, written by Peter Selinger 2001-2017
</metadata>
<g transform="translate(0.000000,128.000000) scale(0.100000,-0.100000)"
fill="#000000" stroke="none">
<path d="M215 1039 c-8 -24 -2 -32 26 -34 26 -2 33 10 19 35 -14 26 -37 26
-45 -1z"/>
<path d="M493 1052 c-7 -4 -11 -16 -9 -27 2 -15 9 -19 27 -17 31 5 32 6 24 31
-7 22 -21 26 -42 13z"/>
<path d="M756 1045 c-10 -26 -7 -32 13 -38 29 -7 48 9 35 30 -15 24 -40 28
-48 8z"/>
<path d="M1030 1039 c-14 -24 -13 -26 20 -31 18 -2 26 2 28 16 4 17 -12 35
-30 36 -4 0 -12 -9 -18 -21z"/>
<path d="M202 953 c-5 -16 -24 -65 -41 -110 l-30 -82 105 1 106 0 -7 27 c-3
14 -21 63 -38 108 -29 75 -35 83 -59 83 -19 0 -29 -7 -36 -27z"/>
<path d="M447 882 c-21 -55 -37 -104 -37 -110 0 -7 34 -11 100 -11 55 0 100 3
100 8 0 8 -40 126 -61 179 -10 25 -19 32 -40 32 -24 0 -29 -8 -62 -98z"/>
<path d="M738 937 c-9 -23 -27 -72 -41 -109 l-25 -68 108 1 108 2 -25 66 c-14
36 -32 85 -40 109 -12 35 -19 42 -41 42 -22 0 -30 -7 -44 -43z"/>
<path d="M1017 963 c-3 -10 -20 -59 -39 -109 l-35 -91 108 -2 109 -1 -31 82
c-17 46 -36 95 -41 111 -8 21 -17 27 -38 27 -18 0 -30 -6 -33 -17z"/>
<path d="M141 732 c-12 -4 -16 -466 -5 -496 5 -13 23 -16 98 -16 50 0 96 4
102 8 8 5 11 81 10 257 l-1 250 -96 0 c-53 0 -102 -1 -108 -3z"/>
<path d="M405 730 c-2 -3 -3 -115 -3 -250 0 -176 3 -247 11 -252 14 -9 169
-11 191 -2 13 5 15 42 16 257 l1 252 -107 0 c-58 0 -107 -2 -109 -5z"/>
<path d="M674 731 c-6 -7 -5 -477 2 -495 8 -22 185 -23 203 -2 8 9 11 86 9
257 l-3 244 -103 0 c-57 0 -105 -2 -108 -4z"/>
<path d="M950 730 c-8 -5 -12 -462 -4 -492 5 -16 19 -18 104 -18 80 0 99 3
104 16 9 23 7 494 -1 495 -29 4 -196 4 -203 -1z"/>
</g>
</svg>
